# xmcd
#
# Track frame offsets:
#	150
#	19215
#	34517
#	53916
#	70470
#	84879
#	100291
#	112283
#	131843
#	145068
#
# Disc length: 2175 seconds
#
# Revision: 1
# Processed by: cddbd v1.5.2PL0 Copyright (c) Steve Scherf et al.
# Submitted via: audiograbber 1.83.01
#
DISCID=8c087d0a
DTITLE=South Side Cindy and The Slip-Tones - Mighty Mighty
DYEAR=2007
DGENRE=Blues
TTITLE0=Sail Right Through
TTITLE1=He's Got My Love
TTITLE2=Milkman
TTITLE3=Kiss and Tell
TTITLE4=Out of Memphis
TTITLE5=Left Over Love
TTITLE6=I'll See You Again
TTITLE7=If I Don't Smile
TTITLE8=Seven Days Gone
TTITLE9=Dirty Shoes
EXTD=
EXTT0=
EXTT1=
EXTT2=
EXTT3=
EXTT4=
EXTT5=
EXTT6=
EXTT7=
EXTT8=
EXTT9=
PLAYORDER=
